# xmcd CD database file
#
# Track frame offsets:
#	151
#	14194
#	27611
#	41995
#	56334
#	71198
#	85118
#	98893
#	113666
#	128872
#	144732
#	164010
#	178571
#	192545
#	205495
#	217645
#	230085
#	242518
#	258597
#	273763
#
# Disc length: 3840 seconds
#
# Revision: 0
# Processed by: cddbd v1.5.2PL0 Copyright (c) Steve Scherf et al.
# Submitted via: CDex 1.51
#
DISCID=320efe14
DTITLE=Louis Armstrong - Orginal Songs CD1
DYEAR=2005
DGENRE=Jazz
TTITLE0=do you know what it mans tomiss new orleans
TTITLE1=mahogany hall stomp
TTITLE2=where the blues were born in new orleans
TTITLE3=rockin chair
TTITLE4=someday you`ll be sorry
TTITLE5=jack-armstrong blues
TTITLE6=fifty-fifty blues
TTITLE7=the firm fram sauce
TTITLE8=lovely weather we`re having
TTITLE9=sugar
TTITLE10=back o`town blues
TTITLE11=when it`s sleeping time down south
TTITLE12=perdido street blues
TTITLE13=2:19 blues
TTITLE14=jeepers creepers
TTITLE15=when the saints go marching in
TTITLE16=darling nelly gray
TTITLE17=i can`t give you anything but love
TTITLE18=St. james infirmary
TTITLE19=west end blues
EXTD=YEAR: 2005
EXTT0=
EXTT1=
EXTT2=
EXTT3=
EXTT4=
EXTT5=
EXTT6=
EXTT7=
EXTT8=
EXTT9=
EXTT10=
EXTT11=
EXTT12=
EXTT13=
EXTT14=
EXTT15=
EXTT16=
EXTT17=
EXTT18=
EXTT19=
PLAYORDER=
